<svg width="46" height="47" viewBox="0 0 46 47" fill="none" xmlns="http://www.w3.org/2000/svg">
<circle cx="23" cy="24" r="23" fill="#F9F9F9"/>
<path d="M28.2719 18.5509V16.5441C28.2719 15.9188 28.1488 15.2995 27.9095 14.7218C27.6701 14.1441 27.3194 13.6191 26.8772 13.1769C26.435 12.7348 25.9101 12.384 25.3323 12.1447C24.7546 11.9054 24.1354 11.7822 23.5101 11.7822C22.8847 11.7822 22.2655 11.9054 21.6878 12.1447C21.11 12.384 20.5851 12.7348 20.1429 13.1769C19.7007 13.6191 19.35 14.1441 19.1107 14.7218C18.8714 15.2995 18.7482 15.9188 18.7482 16.5441V21.306C18.7482 21.4864 18.8199 21.6594 18.9474 21.787C19.075 21.9146 19.248 21.9862 19.4285 21.9862C19.6089 21.9862 19.7819 21.9146 19.9095 21.787C20.0371 21.6594 20.1087 21.4864 20.1087 21.306V19.9114H25.5509V18.5509H20.1087V16.5441C20.1087 15.642 20.4671 14.7769 21.105 14.139C21.7428 13.5011 22.608 13.1428 23.5101 13.1428C24.4121 13.1428 25.2773 13.5011 25.9152 14.139C26.553 14.7769 26.9114 15.642 26.9114 16.5441V21.2719C26.9114 21.4524 26.9831 21.6254 27.1106 21.753C27.2382 21.8805 27.4112 21.9522 27.5917 21.9522C27.7721 21.9522 27.9451 21.8805 28.0727 21.753C28.2003 21.6254 28.2719 21.4524 28.2719 21.2719V19.9114H31.6733V32.1562H15.3469V19.9114H17.3877V18.5509H13.9863V32.2174C13.9863 32.562 14.1232 32.8925 14.3669 33.1362C14.6106 33.3799 14.941 33.5167 15.2856 33.5167H31.7345C32.0791 33.5167 32.4096 33.3799 32.6532 33.1362C32.8969 32.8925 33.0338 32.562 33.0338 32.2174V18.5509H28.2719Z" fill="#292D32"/>
<circle cx="38" cy="8" r="8" fill="#48A4EB"/>
<path d="M37.3574 6.98438H38.2598C38.6895 6.98438 39.0078 6.87695 39.2148 6.66211C39.4219 6.44727 39.5254 6.16211 39.5254 5.80664C39.5254 5.46289 39.4219 5.19531 39.2148 5.00391C39.0117 4.8125 38.7305 4.7168 38.3711 4.7168C38.0469 4.7168 37.7754 4.80664 37.5566 4.98633C37.3379 5.16211 37.2285 5.39258 37.2285 5.67773H35.5352C35.5352 5.23242 35.6543 4.83398 35.8926 4.48242C36.1348 4.12695 36.4707 3.84961 36.9004 3.65039C37.334 3.45117 37.8105 3.35156 38.3301 3.35156C39.2324 3.35156 39.9395 3.56836 40.4512 4.00195C40.9629 4.43164 41.2188 5.02539 41.2188 5.7832C41.2188 6.17383 41.0996 6.5332 40.8613 6.86133C40.623 7.18945 40.3105 7.44141 39.9238 7.61719C40.4043 7.78906 40.7617 8.04688 40.9961 8.39062C41.2344 8.73438 41.3535 9.14062 41.3535 9.60938C41.3535 10.3672 41.0762 10.9746 40.5215 11.4316C39.9707 11.8887 39.2402 12.1172 38.3301 12.1172C37.4785 12.1172 36.7812 11.8926 36.2383 11.4434C35.6992 10.9941 35.4297 10.4004 35.4297 9.66211H37.123C37.123 9.98242 37.2422 10.2441 37.4805 10.4473C37.7227 10.6504 38.0195 10.752 38.3711 10.752C38.7734 10.752 39.0879 10.6465 39.3145 10.4355C39.5449 10.2207 39.6602 9.9375 39.6602 9.58594C39.6602 8.73438 39.1914 8.30859 38.2539 8.30859H37.3574V6.98438Z" fill="white"/>
</svg>
